<svg width="640" height="420" viewBox="0 0 640 420" fill="none" xmlns="http://www.w3.org/2000/svg">
  <rect width="640" height="420" rx="32" fill="#EFF6FF"/>
  <rect x="40" y="40" width="560" height="340" rx="24" fill="white"/>
  <rect x="56" y="64" width="160" height="10" rx="5" fill="#DBEAFE"/>
  <rect x="56" y="84" width="120" height="8" rx="4" fill="#E5E7EB"/>

  <circle cx="520" cy="88" r="18" fill="#DBEAFE"/>
  <circle cx="520" cy="88" r="12" fill="#3B82F6"/>

  <rect x="56" y="120" width="240" height="160" rx="18" fill="#ECFEFF"/>
  <rect x="72" y="140" width="120" height="10" rx="5" fill="#A5B4FC"/>
  <rect x="72" y="158" width="96" height="8" rx="4" fill="#BFDBFE"/>

  <rect x="72" y="182" width="176" height="8" rx="4" fill="#E5E7EB"/>
  <rect x="72" y="198" width="152" height="8" rx="4" fill="#E5E7EB"/>

  <rect x="72" y="224" width="140" height="28" rx="14" fill="#22C55E" fill-opacity="0.14"/>
  <circle cx="92" cy="238" r="9" fill="#22C55E"/>
  <rect x="110" y="231" width="88" height="14" rx="7" fill="#BBF7D0"/>

  <rect x="320" y="120" width="264" height="80" rx="18" fill="#EEF2FF"/>
  <rect x="340" y="136" width="120" height="10" rx="5" fill="#4F46E5"/>
  <rect x="340" y="154" width="184" height="8" rx="4" fill="#E5E7EB"/>
  <rect x="340" y="170" width="132" height="8" rx="4" fill="#E5E7EB"/>

  <rect x="320" y="216" width="264" height="104" rx="18" fill="#F0FDF4"/>
  <rect x="340" y="234" width="96" height="10" rx="5" fill="#16A34A"/>
  <rect x="340" y="252" width="184" height="8" rx="4" fill="#DCFCE7"/>
  <rect x="340" y="268" width="152" height="8" rx="4" fill="#DCFCE7"/>
  <rect x="340" y="288" width="120" height="8" rx="4" fill="#DCFCE7"/>

  <rect x="56" y="300" width="120" height="56" rx="16" fill="#0EA5E9" fill-opacity="0.1"/>
  <circle cx="84" cy="324" r="14" fill="#38BDF8"/>
  <rect x="106" y="314" width="52" height="8" rx="4" fill="#E0F2FE"/>
  <rect x="106" y="328" width="40" height="6" rx="3" fill="#BAE6FD"/>
</svg>

